<?xml version="1.0" encoding="utf-8"?>
<!-- Generator: Adobe Illustrator 27.8.1, SVG Export Plug-In . SVG Version: 6.00 Build 0)  -->
<svg version="1.1" id="Layer_2_00000117670156156182053940000004374207503398117532_"
	 xmlns="http://www.w3.org/2000/svg" xmlns:xlink="http://www.w3.org/1999/xlink" x="0px" y="0px" viewBox="0 0 817.7 338.2"
	 style="enable-background:new 0 0 817.7 338.2;" xml:space="preserve">
<g>
	<path d="M371.9,265.8c-1,0-1.5-1.2-0.8-1.9c2.2-2.3,7.1-8,8-9.8c5.3-9.4,5.6-25.8,5.7-39.1c0.4-50.9-0.7-104-1-154.3
		c0-8.5-2.1-23.7-6.6-30.9c-1.4-2.3-3.6-3.8-4-6.4s0.1-0.8,0.5-1c1.2-0.7,4.1-0.9,5.2-1c19.5-1.6,63.4-1.6,81.8,3.1
		c55.3,14,69.8,93.4,23.7,123.3c-2.2,1.4-9.8,4.7-10.4,5.3c-0.7,0.7-0.8,1-0.8,1.8c0,0.8,0.1,0.5,0.2,0.7c3.1,3.8,5.6,7.4,8.2,11.6
		c11.4,19.1,20,40.2,31.2,59.5c22.9,39.5,60.6,100.9,113.6,67.6c0.7-0.4,4.1-3.9,3.5-1c-0.8,4.6-12.2,14.8-16.3,17.5
		c-19.3,12.8-46,16-67.5,7.1c-44.7-18.7-71.1-96.3-94.6-136.4c-3.2-5.6-6.2-13.5-13.8-12.1c-7.7,1.4-13.3,4.5-14.8,5.5
		c-3.3,2.2-4.2,6.7-4.5,10.5c-1,11.8,0.1,25,0.7,36.7c0.5,10.1,0,23.5,5.9,32.4c2.6,4.1,5.8,7.3,9.2,10.3s0.2,1.2-0.4,1.2H372
		L371.9,265.8L371.9,265.8z M421,147.9c1.5,1.4,4.7,1,6.6,0.6c7.7-1.4,24.5-8,30.6-12.8c28.1-22.1,26.2-82.7-12.7-91.5
		c-7-1.6-23.8-3.7-26.1,5.3c-2.2,9,0,0.2,0,0.3C419.3,78.1,419.5,146.6,421,147.9L421,147.9L421,147.9z"/>
	<path d="M361.3,21.4c1.7,0,2.9,1.7,2.3,3.3c-3,7.6-5.7,9.5-5.7,20.9c0.2,54.2,0.5,126.8,0.8,180.4c0,8.3-1.7,31.5-9.3,35.2
		c-11,5.3-35.5-37.3-35.5-37.3c-26.9-47.4-50-91.7-77.4-140.6c-3-5-6.9-4.5-6.9,1.6c0,34.8,0.5,75.4,0,110.4l0.2,31.5
		c0.2,16.1,13.8,30,27.9,37.4c14,7.4,0.3,2-0.8,2h-82.5c-0.5,0-0.8-0.7-0.3-1c12.9-9.5,26.7-23.5,27.8-38.5c1.1-14.9,0,0,0,0
		c-0.4-56.1,0-109.8,0-166.4c0-16.4-8.7-24.5-12.8-28.1c-5.9-5-12.9-9.5-12.9-9.5c-0.6-0.5-0.2-1.5,0.6-1.5
		c14.6-0.2,38.2,0.2,51,0.3c12.8,0.2,21.6,13.7,29.9,24.8c8.3,11.1,0,0,0,0c24.7,44.6,46,91.1,70.5,135.8c1.3,2.3,6.5,11.9,8.6,11.2
		c2.1-0.7,2.1-12.4,2-15.1c-0.6-38-1.1-82.2-2-119.6c-0.2-8.4-2.9-19.5-8.6-25.9c-1.1-1.2-5.8-5.2-8.6-8.3s-0.2-2.9,1.4-2.9
		L361.3,21.4L361.3,21.4L361.3,21.4z"/>
	<path d="M137.2,115.7c0-0.5-0.4-1-1-1c-15.6,0.5-28.1,13.4-28.1,29.1s12.5,28.5,28.1,29.1c0.5,0,1-0.4,1-1V115.7L137.2,115.7z"/>
	<path d="M96.8,157.7c0.7,0.1,1.3-0.6,1-1.3c-0.6-1.6-1.1-3.5-1.5-5.3c-0.4-1.8-0.7-4.8-0.7-7.4c0-2.5,0.2-5,0.7-7.4
		c0.5-2.4,0.9-3.5,1.5-5.3c0.6-1.7-0.4-1.4-1-1.3l-59.4,13c-1,0.2-1,1.6,0,1.9L96.8,157.7z"/>
	<path d="M110.1,110.8c0.1,0.7,1,1,1.6,0.6c1.3-1.1,2.8-2.2,4.4-3.1c1.6-0.9,4.3-2.3,6.6-3.2s4.7-1.5,7.1-1.8
		c2.4-0.3,3.6-0.4,5.4-0.4s1.2-0.8,0.8-1.4L103.6,50c-0.5-0.9-1.9-0.4-1.7,0.7l8.3,60.2L110.1,110.8L110.1,110.8z"/>
	<path d="M135.2,186.5c0.4-0.6,0-1.4-0.7-1.5c-1.8,0-3.6-0.2-5.4-0.5s-4.7-1.1-7.1-2c-2.4-0.9-4.5-2.1-6.5-3.4c-2-1.3-3-2.1-4.3-3.3
		c-1.3-1.2-1.4-0.2-1.6,0.5l-9.8,60c-0.1,1,1.2,1.6,1.7,0.7L135.2,186.5L135.2,186.5L135.2,186.5z"/>
	<path d="M176.2,141.8V71.1c0-27.6-22.7-43.8-61.9-55.9c-0.7-0.2-1.1,0.7-0.5,1.1c31.5,18.1,39.1,36.4,39.1,62.1v130.9
		c0,25.7-7.6,44-39.1,62.1c-0.7,0.4-0.2,1.3,0.5,1.1c39.2-12.1,61.9-28.3,61.9-55.9L176.2,141.8L176.2,141.8L176.2,141.8z"/>
	<path d="M710.6,266.3c-0.8,0-1.1-1-0.5-1.5c17.4-13.4,10.4-36.6,4.1-54.7c-6.3-18.1-5.2-18.6-13.4-19c-16.2-0.2-46.1,0-59.2,0
		c-2.1,0-3.7-2-3.1-4.1l3.8-13.8c0.5-1.9,2.3-3.2,4.2-3.2h51.4c0.4,0,2.1-1.2,2.5-1.9c0.4-0.7,0-0.2,0-0.2c0.3-1.4,0.2-2.7-0.1-4.1
		c-1.3-8.1-6.9-21-9.4-29.7c-4.7-16.9-12.3-43.7-17.2-61.2c-0.8-2.8-0.8-5.8-0.1-8.7l8.8-35.1c0.8-3.1,4.5-4.3,6.9-2.2
		c5.2,4.5,11.7,11.5,12.7,14.6c20.1,62.1,33.6,130.7,56.1,191.2c4.4,12,9.7,23,18.8,32c9.1,9,0.2,1.4-0.6,1.4h-65.9L710.6,266.3
		L710.6,266.3z"/>
	<path d="M565.5,30.1c-9.3,14.9-1.8,41,1.9,57.1c7.9,34.8,17.3,74.1,27.5,108.3c0.7,2.2,1.3,4.6,2.4,6.6c2.9,0,5.2-9.5,6-12
		c11.1-34.4,21.4-73.4,30.2-108.6c3.7-14.6,11.7-38.4,2-51.9c-1.2-1.6-8-6.2-7.1-7.5c1.3-0.4,2.6-0.7,4.1-0.8c8-0.6,22.9-0.7,30.8,0
		c1.8,0.1,4.7,0.5,5,2.6l-61.3,220.7c-1.6,4.9-5.7,19.1-10.7,20.8c-5,1.6-16.4,2.8-18.1-2.2c-18.1-63.6-31.9-128.7-51.2-191.8
		c-4-13.1-9.8-32.1-20.4-41.1c-1.9-1.6-4.1-3.4-5.9-5c-3.7-3-5.3-4.1,0.7-4.1h66.1C585.9,21.3,570.6,22.1,565.5,30.1L565.5,30.1
		L565.5,30.1z"/>
</g>
</svg>
