<svg width="818" height="339" viewBox="0 0 818 339" fill="none" xmlns="http://www.w3.org/2000/svg">
<path d="M371.9 265.8C370.9 265.8 370.4 264.6 371.1 263.9C373.3 261.6 378.2 255.9 379.1 254.1C384.4 244.7 384.7 228.3 384.8 215C385.2 164.1 384.1 111 383.8 60.7001C383.8 52.2001 381.7 37.0001 377.2 29.8001C375.8 27.5001 373.6 26.0001 373.2 23.4001C372.8 20.8001 373.3 22.6001 373.7 22.4001C374.9 21.7001 377.8 21.5001 378.9 21.4001C398.4 19.8001 442.3 19.8001 460.7 24.5001C516 38.5001 530.5 117.9 484.4 147.8C482.2 149.2 474.6 152.5 474 153.1C473.3 153.8 473.2 154.1 473.2 154.9C473.2 155.7 473.3 155.4 473.4 155.6C476.5 159.4 479 163 481.6 167.2C493 186.3 501.6 207.4 512.8 226.7C535.7 266.2 573.4 327.6 626.4 294.3C627.1 293.9 630.5 290.4 629.9 293.3C629.1 297.9 617.7 308.1 613.6 310.8C594.3 323.6 567.6 326.8 546.1 317.9C501.4 299.2 475 221.6 451.5 181.5C448.3 175.9 445.3 168 437.7 169.4C430 170.8 424.4 173.9 422.9 174.9C419.6 177.1 418.7 181.6 418.4 185.4C417.4 197.2 418.5 210.4 419.1 222.1C419.6 232.2 419.1 245.6 425 254.5C427.6 258.6 430.8 261.8 434.2 264.8C437.6 267.8 434.4 266 433.8 266H372L371.9 265.8ZM421 147.9C422.5 149.3 425.7 148.9 427.6 148.5C435.3 147.1 452.1 140.5 458.2 135.7C486.3 113.6 484.4 53.0001 445.5 44.2001C438.5 42.6001 421.7 40.5001 419.4 49.5001C417.2 58.5001 419.4 49.7001 419.4 49.8001C419.3 78.1001 419.5 146.6 421 147.9Z" fill="white"/>
<path d="M361.3 21.4C363 21.4 364.2 23.1 363.6 24.7C360.6 32.3 357.9 34.2 357.9 45.6C358.1 99.8 358.4 172.4 358.7 226C358.7 234.3 357 257.5 349.4 261.2C338.4 266.5 313.9 223.9 313.9 223.9C287 176.5 263.9 132.2 236.5 83.3C233.5 78.3 229.6 78.8 229.6 84.9C229.6 119.7 230.1 160.3 229.6 195.3L229.8 226.8C230 242.9 243.6 256.8 257.7 264.2C271.7 271.6 258 266.2 256.9 266.2H174.4C173.9 266.2 173.6 265.5 174.1 265.2C187 255.7 200.8 241.7 201.9 226.7C201.5 170.6 201.9 116.9 201.9 60.3C201.9 43.9 193.2 35.8 189.1 32.2C183.2 27.2 176.2 22.7 176.2 22.7C175.6 22.2 176 21.2 176.8 21.2C191.4 21 215 21.4 227.8 21.5C240.6 21.7 249.4 35.2 257.7 46.3C282.4 90.9 303.7 137.4 328.2 182.1C329.5 184.4 334.7 194 336.8 193.3C338.9 192.6 338.9 180.9 338.8 178.2C338.2 140.2 337.7 96 336.8 58.6C336.6 50.2 333.9 39.1 328.2 32.7C327.1 31.5 322.4 27.5 319.6 24.4C316.8 21.3 319.4 21.5 321 21.5L361.3 21.4Z" fill="white"/>
<path d="M137.2 115.7C137.2 115.2 136.8 114.7 136.2 114.7C120.6 115.2 108.1 128.1 108.1 143.8C108.1 159.5 120.6 172.3 136.2 172.9C136.7 172.9 137.2 172.5 137.2 171.9V115.7Z" fill="white"/>
<path d="M96.8 157.7C97.5 157.8 98.1 157.1 97.8 156.4C97.2 154.8 96.7 152.9 96.3 151.1C95.9 149.3 95.6 146.3 95.6 143.7C95.6 141.2 95.8 138.7 96.3 136.3C96.8 133.9 97.2 132.8 97.8 131C98.4 129.3 97.4 129.6 96.8 129.7L37.4 142.7C36.4 142.9 36.4 144.3 37.4 144.6L96.8 157.7Z" fill="white"/>
<path d="M110.1 110.8C110.2 111.5 111.1 111.8 111.7 111.4C113 110.3 114.5 109.2 116.1 108.3C117.7 107.4 120.4 106 122.7 105.1C125 104.2 127.4 103.6 129.8 103.3C132.2 103 133.4 102.9 135.2 102.9C137 102.9 136.4 102.1 136 101.5L103.6 49.9999C103.1 49.0999 101.7 49.5999 101.9 50.6999L110.2 110.9L110.1 110.8Z" fill="white"/>
<path d="M135.2 186.5C135.6 185.9 135.2 185.1 134.5 185C132.7 185 130.9 184.8 129.1 184.5C127.3 184.2 124.4 183.4 122 182.5C119.6 181.6 117.5 180.4 115.5 179.1C113.5 177.8 112.5 177 111.2 175.8C109.9 174.6 109.8 175.6 109.6 176.3L99.8 236.3C99.7 237.3 101 237.9 101.5 237L135.2 186.5Z" fill="white"/>
<path d="M176.2 141.8V71.1C176.2 43.5 153.5 27.3 114.3 15.2C113.6 15 113.2 15.9 113.8 16.3C145.3 34.4 152.9 52.7 152.9 78.4V209.3C152.9 235 145.3 253.3 113.8 271.4C113.1 271.8 113.6 272.7 114.3 272.5C153.5 260.4 176.2 244.2 176.2 216.6V141.8Z" fill="white"/>
<path d="M710.6 266.3C709.8 266.3 709.5 265.3 710.1 264.8C727.5 251.4 720.5 228.2 714.2 210.1C707.9 192 709 191.5 700.8 191.1C684.6 190.9 654.7 191.1 641.6 191.1C639.5 191.1 637.9 189.1 638.5 187L642.3 173.2C642.8 171.3 644.6 170 646.5 170H697.9C698.3 170 700 168.8 700.4 168.1C700.8 167.4 700.4 167.9 700.4 167.9C700.7 166.5 700.6 165.2 700.3 163.8C699 155.7 693.4 142.8 690.9 134.1C686.2 117.2 678.6 90.4001 673.7 72.9001C672.9 70.1001 672.9 67.1001 673.6 64.2001L682.4 29.1001C683.2 26.0001 686.9 24.8001 689.3 26.9001C694.5 31.4001 701 38.4001 702 41.5001C722.1 103.6 735.6 172.2 758.1 232.7C762.5 244.7 767.8 255.7 776.9 264.7C786 273.7 777.1 266.1 776.3 266.1H710.4L710.6 266.3Z" fill="white"/>
<path d="M565.5 30.1C556.2 45 563.7 71.1 567.4 87.2C575.3 122 584.7 161.3 594.9 195.5C595.6 197.7 596.2 200.1 597.3 202.1C600.2 202.1 602.5 192.6 603.3 190.1C614.4 155.7 624.7 116.7 633.5 81.5C637.2 66.9 645.2 43.1 635.5 29.6C634.3 28 627.5 23.4 628.4 22.1C629.7 21.7 631 21.4 632.5 21.3C640.5 20.7 655.4 20.6 663.3 21.3C665.1 21.4 668 21.8 668.3 23.9L607 244.6C605.4 249.5 601.3 263.7 596.3 265.4C591.3 267 579.9 268.2 578.2 263.2C560.1 199.6 546.3 134.5 527 71.4C523 58.3 517.2 39.3 506.6 30.3C504.7 28.7 502.5 26.9 500.7 25.3C497 22.3 495.4 21.2 501.4 21.2H567.5C585.9 21.3 570.6 22.1 565.5 30.1Z" fill="white"/>
</svg>
