<svg width="186" height="343" viewBox="0 0 186 343" fill="none" xmlns="http://www.w3.org/2000/svg">
<g clip-path="url(#clip0_333_330)">
<path d="M133.85 133.94C133.85 133.24 133.25 132.64 132.55 132.64C111.75 133.34 95.1504 150.44 95.1504 171.34C95.1504 192.24 111.75 209.34 132.55 210.04C133.25 210.04 133.85 209.54 133.85 208.74V133.84V133.94Z" fill="white"/>
<path d="M80.15 189.839C81.15 190.039 81.95 189.039 81.55 188.139C80.75 185.939 80.05 183.539 79.55 181.139C79.05 178.739 78.55 174.739 78.55 171.339C78.55 167.939 78.85 164.739 79.55 161.539C80.25 158.339 80.75 156.839 81.55 154.539C82.35 152.239 81.05 152.639 80.15 152.839L1.05 170.139C-0.35 170.439 -0.35 172.339 1.05 172.639L80.15 189.839Z" fill="white"/>
<path d="M98.1502 127.34C98.3502 128.34 99.4502 128.74 100.25 128.14C102.05 126.64 104.05 125.14 106.15 123.94C108.25 122.74 111.85 120.84 114.95 119.64C118.05 118.44 121.25 117.64 124.45 117.24C127.65 116.84 129.25 116.74 131.65 116.74C134.05 116.74 133.25 115.64 132.75 114.84L89.4502 46.4395C88.7502 45.2395 86.9502 45.9395 87.1502 47.3395L98.1502 127.54V127.34Z" fill="white"/>
<path d="M131.25 228.039C131.75 227.239 131.25 226.139 130.25 226.039C127.85 226.039 125.45 225.739 123.05 225.339C120.65 224.939 116.75 223.839 113.55 222.639C110.35 221.439 107.55 219.839 104.85 218.139C102.15 216.439 100.85 215.339 99.15 213.739C97.45 212.139 97.25 213.439 97.05 214.439L83.95 294.339C83.75 295.739 85.55 296.439 86.25 295.239L131.35 228.039H131.25Z" fill="white"/>
<path d="M185.65 168.64V74.5395C185.65 37.8395 155.05 16.1395 102.15 0.039526C101.15 -0.260474 100.65 1.03953 101.45 1.53953C143.95 25.6395 154.25 50.0395 154.25 84.2395V258.64C154.25 292.84 143.95 317.24 101.45 341.34C100.55 341.84 101.15 343.14 102.15 342.84C155.05 326.74 185.65 305.14 185.65 268.34V168.64Z" fill="white"/>
</g>
<defs>
<clipPath id="clip0_333_330">
<rect width="185.65" height="342.89" fill="white"/>
</clipPath>
</defs>
</svg>
